<svg xmlns="http://www.w3.org/2000/svg" width="195" height="32" viewBox="0 0 195 32" version="1.1"><path d="M 9.332 1.578 L 8.727 3.155 10.379 4.808 L 12.032 6.461 14.003 5.230 C 16.406 3.729, 19.245 3.645, 20.633 5.033 L 21.666 6.066 23.333 5.426 L 25 4.786 25 2.862 L 25 0.937 23.436 0.337 L 21.872 -0.263 19.284 0.916 L 16.696 2.096 15.648 1.048 C 15.072 0.472, 13.551 0, 12.269 0 L 9.937 0 9.332 1.578 M 55.173 1.690 C 54.643 2.685, 51.887 9.069, 49.046 15.875 L 43.882 28.250 44.410 29.625 L 44.937 31 46.555 31 L 48.174 31 49.306 28 L 50.438 25 57.621 25 L 64.804 25 65.847 27.991 L 66.890 30.983 71.195 30.741 L 75.500 30.500 76 22.711 L 76.500 14.922 78 13.977 C 80.070 12.671, 81.564 12.770, 82.830 14.295 L 83.904 15.589 84.202 23.045 L 84.500 30.500 86.750 30.820 L 89 31.139 89 23.641 L 89 16.143 90.571 14.571 C 92.295 12.848, 93.049 12.698, 95.418 13.607 L 97 14.214 97 21.025 C 97 24.771, 97.273 28.548, 97.607 29.418 L 98.214 31 100.107 31 L 102 31 102 22 L 102 13 100 11 L 98 9 94.200 9 L 90.400 9 89.220 10.180 L 88.040 11.360 85.770 10.157 L 83.500 8.953 77.500 9.228 L 71.500 9.503 71 17.974 L 70.500 26.444 64.963 13.479 L 59.426 0.513 57.780 0.196 L 56.135 -0.121 55.173 1.690 M 105.362 1.500 L 104.786 3 105.362 4.500 L 105.937 6 107.346 6 C 108.121 6, 109.315 5.325, 110 4.500 L 111.245 3 110 1.500 C 109.315 0.675, 108.121 0, 107.346 0 L 105.937 0 105.362 1.500 M 4.958 7.550 L 3.672 9.100 5.306 10.735 L 6.941 12.370 9.420 11.043 L 11.900 9.716 14.841 10.934 L 17.783 12.153 19.830 10.874 L 21.877 9.596 24.371 10.931 L 26.865 12.266 28.433 11.664 L 30 11.063 30 9 L 30 6.937 28.368 6.311 L 26.735 5.684 24.759 6.918 L 22.783 8.153 19.841 6.934 L 16.900 5.716 14.575 6.960 L 12.250 8.204 10.191 7.102 C 7.438 5.629, 6.485 5.710, 4.958 7.550 M 55.490 13.104 C 54.395 16.041, 53.350 18.794, 53.167 19.222 L 52.833 20 57.417 20 L 62 20 61.939 18.750 C 61.905 18.063, 60.888 15.309, 59.679 12.632 L 57.480 7.764 55.490 13.104 M 105.457 10.251 C 105.162 11.021, 105.051 15.891, 105.210 21.075 L 105.500 30.500 107.500 30.500 L 109.500 30.500 109.500 20.014 L 109.500 9.527 107.747 9.190 L 105.994 8.852 105.457 10.251 M 1.250 12.662 L 0 13.167 0 15.476 L 0 17.786 1.552 18.382 L 3.105 18.977 5.353 17.505 L 7.600 16.032 9.775 17.555 L 11.949 19.078 14.825 17.590 L 17.702 16.103 19.894 17.638 L 22.086 19.174 24.613 17.518 L 27.140 15.862 29.637 17.498 L 32.134 19.134 33.567 17.944 L 35 16.755 35 14.985 L 35 13.214 33.333 12.574 L 31.666 11.934 30.633 12.967 C 30.065 13.535, 28.655 14, 27.500 14 L 25.400 14 24.175 12.775 L 22.950 11.550 20.989 12.775 C 18.485 14.338, 15.738 14.338, 14.175 12.775 L 12.950 11.550 10.989 12.775 C 8.617 14.256, 5.347 14.370, 4.500 13 C 3.838 11.930, 3.224 11.866, 1.250 12.662 M 4.958 20.550 L 3.672 22.100 5.306 23.735 L 6.941 25.370 9.470 24.016 L 12 22.662 14.500 24 L 17 25.338 19.500 24 L 22 22.662 24.433 23.964 L 26.865 25.266 28.433 24.664 L 30 24.063 30 22 L 30 19.937 28.368 19.311 L 26.735 18.684 24.759 19.918 L 22.783 21.153 19.841 19.934 L 16.900 18.716 14.430 20.038 L 11.960 21.360 10.780 20.180 C 10.131 19.531, 8.845 19, 7.922 19 L 6.245 19 4.958 20.550 M 10.105 26.373 L 8.965 27.747 9.590 29.373 L 10.214 31 11.673 31 C 12.475 31, 14.058 30.504, 15.191 29.898 L 17.250 28.796 19.558 30.031 L 21.865 31.266 23.433 30.664 L 25 30.063 25 28 L 25 25.937 23.433 25.336 L 21.865 24.734 19.371 26.069 L 16.877 27.404 14.952 26.202 C 12.471 24.653, 11.505 24.687, 10.105 26.373" stroke="none" fill="#8cc444" fill-rule="evenodd"/><path d="M 130 5.466 L 130 11.070 128.066 10.035 C 127.002 9.466, 124.627 9, 122.788 9 L 119.445 9 117.217 10.561 C 114.500 12.464, 111.999 17.089, 112.004 20.200 L 112.007 22.500 114.026 25.810 L 116.044 29.120 119.608 30.609 L 123.172 32.099 126.439 31.020 L 129.706 29.942 132.103 27.393 L 134.500 24.844 134.500 12.672 L 134.500 0.500 132.250 0.180 L 130 -0.139 130 5.466 M 162.701 2.632 C 162.316 3.018, 162 4.833, 162 6.667 L 162 10 160 10 L 158 10 158 11.594 L 158 13.187 160 13.710 L 162 14.233 162 19.982 L 162 25.730 164.116 28.420 L 166.231 31.109 169.357 30.805 L 172.484 30.500 172.793 28.866 L 173.102 27.231 170.051 26.168 L 167 25.104 167 19.622 L 167 14.139 169.240 13.820 L 171.480 13.500 171.813 11.750 L 172.147 10 169.634 10 L 167.121 10 166.810 6.258 L 166.500 2.517 164.951 2.224 C 164.099 2.063, 163.087 2.246, 162.701 2.632 M 140.077 12.077 L 137 15.154 137 19.854 L 137 24.555 138.631 26.883 L 140.261 29.211 143.473 30.553 L 146.685 31.895 149.092 31.303 C 150.417 30.978, 152.022 30.304, 152.661 29.807 L 153.822 28.903 154.470 29.951 L 155.118 31 157.059 31 L 159 31 159 24.047 L 159 17.094 157.805 14.472 L 156.611 11.850 153.855 10.425 L 151.099 9 147.127 9 L 143.154 9 140.077 12.077 M 175.997 11.850 L 173.147 14.699 172.467 18.325 L 171.787 21.950 173.671 25.225 L 175.556 28.500 179.201 30.296 L 182.846 32.091 186.318 30.641 L 189.790 29.190 190.828 30.228 L 191.866 31.266 193.433 30.664 L 195 30.063 195 22.931 L 195 15.800 191.600 12.400 L 188.200 9 183.523 9 L 178.846 9 175.997 11.850 M 119.246 15.239 L 117 17.629 117 20.140 L 117 22.651 119.314 24.826 L 121.629 27 123.814 27 L 126 27 128 25 L 130 23 130 20.191 L 130 17.382 128.750 15.705 L 127.500 14.027 124.496 13.438 L 121.491 12.848 119.246 15.239 M 143.944 14.844 L 141.667 16.688 141.667 20 L 141.667 23.312 143.944 25.156 C 146.800 27.468, 149.169 27.494, 151.949 25.242 L 154.120 23.484 154.217 20.078 L 154.314 16.672 152.046 14.836 C 149.171 12.508, 146.826 12.511, 143.944 14.844 M 179.635 15.073 L 177 17.145 177 20 L 177 22.855 179.635 24.927 L 182.270 27 184.135 27 L 186 27 188 25 L 190 23 190 20 L 190 17 188 15 L 186 13 184.135 13 L 182.270 13 179.635 15.073" stroke="none" fill="#f9f9f9" fill-rule="evenodd"/></svg>